<mxfile host="app.diagrams.net" modified="2022-01-09T15:54:17.413Z" agent="5.0 (Windows NT 10.0; Win64; x64) AppleWebKit/537.36 (KHTML, like Gecko) Chrome/97.0.4692.71 Safari/537.36" etag="TLnt7F86R6vxd_sY4geY" version="16.2.4" type="github">
  <diagram id="R2lEEEUBdFMjLlhIrx00" name="Page-1">
    <mxGraphModel dx="1673" dy="829" grid="1" gridSize="10" guides="1" tooltips="1" connect="1" arrows="1" fold="1" page="1" pageScale="1" pageWidth="850" pageHeight="1100" math="0" shadow="0" extFonts="Permanent Marker^https://fonts.googleapis.com/css?family=Permanent+Marker">
      <root>
        <mxCell id="0" />
        <mxCell id="1" parent="0" />
        <mxCell id="6VlTdnsmXAr3qn32kdae-2" value="&lt;font style=&quot;font-size: 16px&quot;&gt;&lt;b&gt;Sprachbefehl&lt;/b&gt; oder &lt;b&gt;Button-Interaktion&lt;/b&gt; aus &lt;b&gt;Voraussetzung &lt;/b&gt;für Sprachassistenten-Bedienung&lt;/font&gt;" style="rounded=0;whiteSpace=wrap;html=1;" vertex="1" parent="1">
          <mxGeometry x="50" y="90" width="760" height="70" as="geometry" />
        </mxCell>
        <mxCell id="6VlTdnsmXAr3qn32kdae-3" value="&lt;b&gt;&lt;font style=&quot;font-size: 20px&quot;&gt;1&lt;/font&gt;&lt;/b&gt;" style="ellipse;whiteSpace=wrap;html=1;aspect=fixed;" vertex="1" parent="1">
          <mxGeometry x="30" y="70" width="50" height="50" as="geometry" />
        </mxCell>
        <mxCell id="6VlTdnsmXAr3qn32kdae-6" value="" style="endArrow=classic;html=1;rounded=0;fontSize=20;" edge="1" parent="1">
          <mxGeometry relative="1" as="geometry">
            <mxPoint x="400" y="160" as="sourcePoint" />
            <mxPoint x="400" y="260" as="targetPoint" />
          </mxGeometry>
        </mxCell>
        <mxCell id="6VlTdnsmXAr3qn32kdae-7" value="&lt;font style=&quot;font-size: 15px&quot;&gt;Beginn Dialog in VUI&lt;/font&gt;" style="edgeLabel;resizable=0;html=1;align=center;verticalAlign=middle;fontSize=20;" connectable="0" vertex="1" parent="6VlTdnsmXAr3qn32kdae-6">
          <mxGeometry relative="1" as="geometry" />
        </mxCell>
        <mxCell id="6VlTdnsmXAr3qn32kdae-9" value="" style="rounded=1;whiteSpace=wrap;html=1;fontSize=15;" vertex="1" parent="1">
          <mxGeometry x="50" y="270" width="760" height="540" as="geometry" />
        </mxCell>
        <mxCell id="6VlTdnsmXAr3qn32kdae-8" value="Hallo! Wie kann ich Ihnen helfen?" style="shape=callout;whiteSpace=wrap;html=1;perimeter=calloutPerimeter;fontSize=15;position2=0.7;" vertex="1" parent="1">
          <mxGeometry x="520" y="460" width="200" height="80" as="geometry" />
        </mxCell>
        <mxCell id="6VlTdnsmXAr3qn32kdae-13" value="&lt;font style=&quot;font-size: 20px&quot;&gt;&lt;b&gt;User&lt;/b&gt;&lt;/font&gt;" style="text;html=1;strokeColor=none;fillColor=none;align=center;verticalAlign=middle;whiteSpace=wrap;rounded=0;fontSize=15;" vertex="1" parent="1">
          <mxGeometry x="250" y="295" width="60" height="30" as="geometry" />
        </mxCell>
        <mxCell id="6VlTdnsmXAr3qn32kdae-15" value="" style="shape=umlActor;verticalLabelPosition=bottom;verticalAlign=top;html=1;outlineConnect=0;fontSize=20;" vertex="1" parent="1">
          <mxGeometry x="140" y="295" width="20" height="30" as="geometry" />
        </mxCell>
        <mxCell id="6VlTdnsmXAr3qn32kdae-17" value="" style="ellipse;shape=cloud;whiteSpace=wrap;html=1;fontSize=20;" vertex="1" parent="1">
          <mxGeometry x="120" y="350" width="60" height="40" as="geometry" />
        </mxCell>
        <mxCell id="6VlTdnsmXAr3qn32kdae-18" value="&lt;b&gt;&lt;font style=&quot;font-size: 16px&quot;&gt;Sprachassistent&lt;/font&gt;&lt;/b&gt;" style="text;html=1;strokeColor=none;fillColor=none;align=center;verticalAlign=middle;whiteSpace=wrap;rounded=0;fontSize=15;" vertex="1" parent="1">
          <mxGeometry x="260" y="353.75" width="50" height="32.5" as="geometry" />
        </mxCell>
        <mxCell id="6VlTdnsmXAr3qn32kdae-24" value="" style="endArrow=classic;startArrow=classic;html=1;rounded=0;fontSize=16;" edge="1" parent="1" source="6VlTdnsmXAr3qn32kdae-9" target="6VlTdnsmXAr3qn32kdae-9">
          <mxGeometry width="50" height="50" relative="1" as="geometry">
            <mxPoint x="190" y="340" as="sourcePoint" />
            <mxPoint x="240" y="290" as="targetPoint" />
          </mxGeometry>
        </mxCell>
        <mxCell id="6VlTdnsmXAr3qn32kdae-26" value="" style="endArrow=classic;startArrow=classic;html=1;rounded=0;fontSize=16;" edge="1" parent="1">
          <mxGeometry width="50" height="50" relative="1" as="geometry">
            <mxPoint x="180" y="310" as="sourcePoint" />
            <mxPoint x="250.71067811865476" y="310" as="targetPoint" />
          </mxGeometry>
        </mxCell>
        <mxCell id="6VlTdnsmXAr3qn32kdae-28" value="" style="endArrow=classic;startArrow=classic;html=1;rounded=0;fontSize=16;exitX=0.875;exitY=0.5;exitDx=0;exitDy=0;exitPerimeter=0;" edge="1" parent="1" source="6VlTdnsmXAr3qn32kdae-17">
          <mxGeometry width="50" height="50" relative="1" as="geometry">
            <mxPoint x="170" y="420" as="sourcePoint" />
            <mxPoint x="220" y="370" as="targetPoint" />
          </mxGeometry>
        </mxCell>
        <mxCell id="6VlTdnsmXAr3qn32kdae-38" style="edgeStyle=orthogonalEdgeStyle;rounded=0;orthogonalLoop=1;jettySize=auto;html=1;exitX=1;exitY=0.5;exitDx=0;exitDy=0;entryX=0;entryY=0;entryDx=0;entryDy=25;entryPerimeter=0;fontSize=16;" edge="1" parent="1" source="6VlTdnsmXAr3qn32kdae-29" target="6VlTdnsmXAr3qn32kdae-8">
          <mxGeometry relative="1" as="geometry" />
        </mxCell>
        <mxCell id="6VlTdnsmXAr3qn32kdae-29" value="&lt;h1&gt;Beginn des Dialogs&lt;/h1&gt;&lt;div&gt;Nach erfolgreichem Input des Users, beginnt die Konversation in der VUI&lt;/div&gt;" style="text;html=1;strokeColor=none;fillColor=none;spacing=5;spacingTop=-20;whiteSpace=wrap;overflow=hidden;rounded=0;fontSize=16;" vertex="1" parent="1">
          <mxGeometry x="120" y="430" width="340" height="120" as="geometry" />
        </mxCell>
        <mxCell id="6VlTdnsmXAr3qn32kdae-30" value="" style="ellipse;shape=cloud;whiteSpace=wrap;html=1;fontSize=16;" vertex="1" parent="1">
          <mxGeometry x="720" y="450" width="90" height="70" as="geometry" />
        </mxCell>
        <mxCell id="6VlTdnsmXAr3qn32kdae-39" style="edgeStyle=orthogonalEdgeStyle;rounded=0;orthogonalLoop=1;jettySize=auto;html=1;exitX=0;exitY=0.25;exitDx=0;exitDy=0;entryX=0.696;entryY=-0.168;entryDx=0;entryDy=0;entryPerimeter=0;fontSize=16;" edge="1" parent="1" source="6VlTdnsmXAr3qn32kdae-31" target="6VlTdnsmXAr3qn32kdae-35">
          <mxGeometry relative="1" as="geometry">
            <Array as="points">
              <mxPoint x="264" y="605" />
            </Array>
          </mxGeometry>
        </mxCell>
        <mxCell id="6VlTdnsmXAr3qn32kdae-31" value="&lt;h1&gt;Waiting for response&lt;/h1&gt;&lt;p&gt;Nach einer Sprachausgabe des Assistenten erhält der User die Möglichkeit einen Sprachbefehl auszuführen.&lt;/p&gt;&lt;p&gt;Sollte der User den Sprachassistenten bereits häufiger Benutzt haben, werden durch einen Algorithmus erkannte relevante Suchbegriffe zur manuellen Auswahl abgebildet&amp;nbsp;&lt;/p&gt;" style="text;html=1;strokeColor=none;fillColor=none;spacing=5;spacingTop=-20;whiteSpace=wrap;overflow=hidden;rounded=0;fontSize=16;align=right;" vertex="1" parent="1">
          <mxGeometry x="425" y="550" width="370" height="220" as="geometry" />
        </mxCell>
        <mxCell id="6VlTdnsmXAr3qn32kdae-33" value="" style="rounded=1;whiteSpace=wrap;html=1;fontSize=16;" vertex="1" parent="1">
          <mxGeometry x="120" y="660" width="290" height="30" as="geometry" />
        </mxCell>
        <mxCell id="6VlTdnsmXAr3qn32kdae-34" value="Hilfe" style="text;strokeColor=none;fillColor=none;align=left;verticalAlign=middle;spacingLeft=4;spacingRight=4;overflow=hidden;points=[[0,0.5],[1,0.5]];portConstraint=eastwest;rotatable=0;fontSize=16;" vertex="1" parent="1">
          <mxGeometry x="130" y="665" width="80" height="20" as="geometry" />
        </mxCell>
        <mxCell id="6VlTdnsmXAr3qn32kdae-35" value="Suche nach..." style="text;strokeColor=none;fillColor=none;align=left;verticalAlign=middle;spacingLeft=4;spacingRight=4;overflow=hidden;points=[[0,0.5],[1,0.5]];portConstraint=eastwest;rotatable=0;fontSize=16;" vertex="1" parent="1">
          <mxGeometry x="180" y="665" width="120" height="20" as="geometry" />
        </mxCell>
        <mxCell id="6VlTdnsmXAr3qn32kdae-36" value="Zeige an..." style="text;strokeColor=none;fillColor=none;align=left;verticalAlign=middle;spacingLeft=4;spacingRight=4;overflow=hidden;points=[[0,0.5],[1,0.5]];portConstraint=eastwest;rotatable=0;fontSize=16;" vertex="1" parent="1">
          <mxGeometry x="290" y="665" width="120" height="20" as="geometry" />
        </mxCell>
        <mxCell id="6VlTdnsmXAr3qn32kdae-42" value="" style="rounded=1;whiteSpace=wrap;html=1;fontSize=16;" vertex="1" parent="1">
          <mxGeometry x="50" y="890" width="760" height="1000" as="geometry" />
        </mxCell>
        <mxCell id="6VlTdnsmXAr3qn32kdae-43" value="&lt;h1&gt;&lt;span&gt;User-Eingabe&lt;/span&gt;&lt;/h1&gt;&lt;h1&gt;&lt;span style=&quot;font-size: 16px ; font-weight: 400&quot;&gt;Abhängig von der User-Eingabe, reagiert der Assistent verschieden und gibt nach Möglichkeit Informationen wieder, stellt eine weitere Frage, öffnet oder sucht extern nach einer Lösung&lt;/span&gt;&lt;/h1&gt;" style="text;html=1;strokeColor=none;fillColor=none;spacing=5;spacingTop=-20;whiteSpace=wrap;overflow=hidden;rounded=0;fontSize=16;" vertex="1" parent="1">
          <mxGeometry x="110" y="910" width="610" height="220" as="geometry" />
        </mxCell>
        <mxCell id="6VlTdnsmXAr3qn32kdae-49" value="" style="shape=umlActor;verticalLabelPosition=bottom;verticalAlign=top;html=1;outlineConnect=0;fontSize=16;" vertex="1" parent="1">
          <mxGeometry x="150" y="1115" width="30" height="60" as="geometry" />
        </mxCell>
        <mxCell id="6VlTdnsmXAr3qn32kdae-52" value="" style="shape=callout;whiteSpace=wrap;html=1;perimeter=calloutPerimeter;fontSize=16;position2=0.42;" vertex="1" parent="1">
          <mxGeometry x="205" y="1120" width="365" height="80" as="geometry" />
        </mxCell>
        <mxCell id="6VlTdnsmXAr3qn32kdae-54" value="Zeige mir den allgemeinen Datentraffic in Baden-Württemberg am 21.05.2021" style="text;html=1;strokeColor=none;fillColor=none;align=center;verticalAlign=middle;whiteSpace=wrap;rounded=0;fontSize=16;" vertex="1" parent="1">
          <mxGeometry x="235" y="1130" width="315" height="30" as="geometry" />
        </mxCell>
        <mxCell id="6VlTdnsmXAr3qn32kdae-55" value="" style="ellipse;shape=cloud;whiteSpace=wrap;html=1;fontSize=16;" vertex="1" parent="1">
          <mxGeometry x="700" y="1210" width="85" height="56.67" as="geometry" />
        </mxCell>
        <mxCell id="6VlTdnsmXAr3qn32kdae-56" value="" style="shape=callout;whiteSpace=wrap;html=1;perimeter=calloutPerimeter;fontSize=16;position2=0.76;" vertex="1" parent="1">
          <mxGeometry x="520" y="1210" width="170" height="90" as="geometry" />
        </mxCell>
        <mxCell id="6VlTdnsmXAr3qn32kdae-57" value="Alles klar! Ich zeige dir eine Übersicht des Datentraffics" style="text;html=1;strokeColor=none;fillColor=none;align=center;verticalAlign=middle;whiteSpace=wrap;rounded=0;fontSize=16;" vertex="1" parent="1">
          <mxGeometry x="511.25" y="1225" width="187.5" height="30" as="geometry" />
        </mxCell>
        <mxCell id="6VlTdnsmXAr3qn32kdae-58" value="" style="ellipse;shape=cloud;whiteSpace=wrap;html=1;fontSize=16;" vertex="1" parent="1">
          <mxGeometry x="685" y="1710" width="115.01" height="76.67" as="geometry" />
        </mxCell>
        <mxCell id="6VlTdnsmXAr3qn32kdae-59" value="" style="shape=callout;whiteSpace=wrap;html=1;perimeter=calloutPerimeter;fontSize=16;position2=0.75;" vertex="1" parent="1">
          <mxGeometry x="380" y="1350" width="310" height="390" as="geometry" />
        </mxCell>
        <mxCell id="6VlTdnsmXAr3qn32kdae-60" value="" style="rounded=1;whiteSpace=wrap;html=1;fontSize=16;" vertex="1" parent="1">
          <mxGeometry x="390" y="1360" width="295" height="340" as="geometry" />
        </mxCell>
        <mxCell id="6VlTdnsmXAr3qn32kdae-61" value="" style="shape=sumEllipse;perimeter=ellipsePerimeter;whiteSpace=wrap;html=1;backgroundOutline=1;fontSize=16;" vertex="1" parent="1">
          <mxGeometry x="410" y="1380" width="80" height="80" as="geometry" />
        </mxCell>
        <mxCell id="6VlTdnsmXAr3qn32kdae-62" value="" style="shape=delay;whiteSpace=wrap;html=1;fontSize=16;" vertex="1" parent="1">
          <mxGeometry x="497.5" y="1380" width="160" height="80" as="geometry" />
        </mxCell>
        <mxCell id="6VlTdnsmXAr3qn32kdae-63" value="Label" style="html=1;whiteSpace=wrap;container=1;recursiveResize=0;collapsible=0;fontSize=16;" vertex="1" parent="1">
          <mxGeometry x="400" y="1480" width="160" height="70" as="geometry" />
        </mxCell>
        <mxCell id="6VlTdnsmXAr3qn32kdae-64" value="" style="triangle;html=1;whiteSpace=wrap;fontSize=16;" vertex="1" parent="6VlTdnsmXAr3qn32kdae-63">
          <mxGeometry x="20" y="20" width="20" height="30" as="geometry" />
        </mxCell>
        <mxCell id="6VlTdnsmXAr3qn32kdae-71" value="" style="shape=actor;whiteSpace=wrap;html=1;fontSize=16;" vertex="1" parent="1">
          <mxGeometry x="610" y="1485" width="40" height="60" as="geometry" />
        </mxCell>
        <mxCell id="6VlTdnsmXAr3qn32kdae-72" value="" style="shape=collate;whiteSpace=wrap;html=1;fontSize=16;" vertex="1" parent="1">
          <mxGeometry x="417.5" y="1590" width="80" height="80" as="geometry" />
        </mxCell>
        <mxCell id="6VlTdnsmXAr3qn32kdae-73" value="" style="shape=lineEllipse;line=vertical;perimeter=ellipsePerimeter;whiteSpace=wrap;html=1;backgroundOutline=1;fontSize=16;" vertex="1" parent="1">
          <mxGeometry x="577.5" y="1590" width="80" height="80" as="geometry" />
        </mxCell>
        <mxCell id="6VlTdnsmXAr3qn32kdae-74" value="&lt;h1&gt;&lt;span&gt;Formen der Ausgabe&lt;/span&gt;&lt;/h1&gt;&lt;h1&gt;&lt;span style=&quot;font-size: 16px ; font-weight: 400&quot;&gt;Der Sprachassistent kann in der VUI Ausgaben in Form von intern-abspielbaren Videos, externen Links, direkten Weiterleitungen oder Text (gesprochen und geschrieben) abbilden.&lt;/span&gt;&lt;/h1&gt;" style="text;html=1;strokeColor=none;fillColor=none;spacing=5;spacingTop=-20;whiteSpace=wrap;overflow=hidden;rounded=0;fontSize=16;" vertex="1" parent="1">
          <mxGeometry x="80" y="1355" width="280" height="350" as="geometry" />
        </mxCell>
        <mxCell id="6VlTdnsmXAr3qn32kdae-75" value="&lt;h1&gt;Heading&lt;/h1&gt;&lt;p&gt;Ein Beispiel eines solchen Dialogs findet sich als Prototype-Veranschaulichung ersichtlich im Ordner.&lt;/p&gt;" style="text;html=1;strokeColor=none;fillColor=none;spacing=5;spacingTop=-20;whiteSpace=wrap;overflow=hidden;rounded=0;fontSize=16;align=right;" vertex="1" parent="1">
          <mxGeometry x="310" y="1920" width="500" height="120" as="geometry" />
        </mxCell>
      </root>
    </mxGraphModel>
  </diagram>
</mxfile>
